<svg width="22" height="18" viewBox="0 0 22 18" fill="none" xmlns="http://www.w3.org/2000/svg">
<path d="M21.9375 9C21.9375 9.3481 21.7992 9.68194 21.5531 9.92808C21.3069 10.1742 20.9731 10.3125 20.625 10.3125H1.375C1.0269 10.3125 0.693064 10.1742 0.446922 9.92808C0.200781 9.68194 0.0625 9.3481 0.0625 9C0.0625 8.6519 0.200781 8.31806 0.446922 8.07192C0.693064 7.82578 1.0269 7.6875 1.375 7.6875H20.625C20.9731 7.6875 21.3069 7.82578 21.5531 8.07192C21.7992 8.31806 21.9375 8.6519 21.9375 9ZM1.375 3.3125H20.625C20.9731 3.3125 21.3069 3.17422 21.5531 2.92808C21.7992 2.68194 21.9375 2.3481 21.9375 2C21.9375 1.6519 21.7992 1.31806 21.5531 1.07192C21.3069 0.825781 20.9731 0.6875 20.625 0.6875H1.375C1.0269 0.6875 0.693064 0.825781 0.446922 1.07192C0.200781 1.31806 0.0625 1.6519 0.0625 2C0.0625 2.3481 0.200781 2.68194 0.446922 2.92808C0.693064 3.17422 1.0269 3.3125 1.375 3.3125ZM20.625 14.6875H1.375C1.0269 14.6875 0.693064 14.8258 0.446922 15.0719C0.200781 15.3181 0.0625 15.6519 0.0625 16C0.0625 16.3481 0.200781 16.6819 0.446922 16.9281C0.693064 17.1742 1.0269 17.3125 1.375 17.3125H20.625C20.9731 17.3125 21.3069 17.1742 21.5531 16.9281C21.7992 16.6819 21.9375 16.3481 21.9375 16C21.9375 15.6519 21.7992 15.3181 21.5531 15.0719C21.3069 14.8258 20.9731 14.6875 20.625 14.6875Z" fill="#F8F8F8"/>
</svg>
