<svg width="97" height="47" viewBox="0 0 97 47" fill="none" xmlns="http://www.w3.org/2000/svg">
<path d="M5.70679 17H3.28491V7.59375H0.18335V5.57812H8.80835V7.59375H5.70679V17ZM19.9255 17H17.5115V12.0703H12.988V17H10.5662V5.57812H12.988V10.0547H17.5115V5.57812H19.9255V17ZM29.3943 17H22.8162V5.57812H29.3943V7.5625H25.238V10.0703H29.1052V12.0547H25.238V15H29.3943V17ZM42.9333 17L42.1052 14.2812H37.9412L37.113 17H34.5037L38.5349 5.53125H41.4958L45.5427 17H42.9333ZM41.5271 12.25C40.7615 9.78646 40.3292 8.39323 40.2302 8.07031C40.1365 7.7474 40.0688 7.49219 40.0271 7.30469C39.8552 7.97135 39.363 9.61979 38.5505 12.25H41.5271ZM53.7302 13.8281C53.7302 14.8594 53.3578 15.6719 52.613 16.2656C51.8735 16.8594 50.8422 17.1562 49.5193 17.1562C48.3005 17.1562 47.2224 16.9271 46.2849 16.4688V14.2188C47.0557 14.5625 47.7068 14.8047 48.238 14.9453C48.7745 15.0859 49.2641 15.1562 49.7068 15.1562C50.238 15.1562 50.6443 15.0547 50.9255 14.8516C51.212 14.6484 51.3552 14.3464 51.3552 13.9453C51.3552 13.7214 51.2927 13.5234 51.1677 13.3516C51.0427 13.1745 50.8578 13.0052 50.613 12.8438C50.3735 12.6823 49.8813 12.4245 49.1365 12.0703C48.4386 11.7422 47.9151 11.4271 47.5662 11.125C47.2172 10.8229 46.9386 10.4714 46.7302 10.0703C46.5219 9.66927 46.4177 9.20052 46.4177 8.66406C46.4177 7.65365 46.7589 6.85938 47.4412 6.28125C48.1287 5.70312 49.0766 5.41406 50.2849 5.41406C50.8787 5.41406 51.4438 5.48438 51.9802 5.625C52.5219 5.76562 53.087 5.96354 53.6755 6.21875L52.8943 8.10156C52.2849 7.85156 51.7797 7.67708 51.3787 7.57812C50.9828 7.47917 50.5922 7.42969 50.2068 7.42969C49.7485 7.42969 49.3969 7.53646 49.1521 7.75C48.9073 7.96354 48.7849 8.24219 48.7849 8.58594C48.7849 8.79948 48.8344 8.98698 48.9333 9.14844C49.0323 9.30469 49.1886 9.45833 49.4021 9.60938C49.6208 9.75521 50.1339 10.0208 50.9412 10.4062C52.0089 10.9167 52.7406 11.4297 53.1365 11.9453C53.5323 12.4557 53.7302 13.0833 53.7302 13.8281ZM65.2771 11.1797C65.2771 13.0599 64.7406 14.5 63.6677 15.5C62.6 16.5 61.0557 17 59.0349 17H55.8005V5.57812H59.3865C61.2511 5.57812 62.699 6.07031 63.7302 7.05469C64.7615 8.03906 65.2771 9.41406 65.2771 11.1797ZM62.7615 11.2422C62.7615 8.78906 61.6781 7.5625 59.5115 7.5625H58.2224V15H59.2615C61.5948 15 62.7615 13.7474 62.7615 11.2422ZM74.6365 17L73.8083 14.2812H69.6443L68.8162 17H66.2068L70.238 5.53125H73.199L77.2458 17H74.6365ZM73.2302 12.25C72.4646 9.78646 72.0323 8.39323 71.9333 8.07031C71.8396 7.7474 71.7719 7.49219 71.7302 7.30469C71.5583 7.97135 71.0662 9.61979 70.2537 12.25H73.2302ZM85.4333 13.8281C85.4333 14.8594 85.061 15.6719 84.3162 16.2656C83.5766 16.8594 82.5453 17.1562 81.2224 17.1562C80.0037 17.1562 78.9255 16.9271 77.988 16.4688V14.2188C78.7589 14.5625 79.4099 14.8047 79.9412 14.9453C80.4776 15.0859 80.9672 15.1562 81.4099 15.1562C81.9412 15.1562 82.3474 15.0547 82.6287 14.8516C82.9151 14.6484 83.0583 14.3464 83.0583 13.9453C83.0583 13.7214 82.9958 13.5234 82.8708 13.3516C82.7458 13.1745 82.561 13.0052 82.3162 12.8438C82.0766 12.6823 81.5844 12.4245 80.8396 12.0703C80.1417 11.7422 79.6182 11.4271 79.2693 11.125C78.9203 10.8229 78.6417 10.4714 78.4333 10.0703C78.225 9.66927 78.1208 9.20052 78.1208 8.66406C78.1208 7.65365 78.462 6.85938 79.1443 6.28125C79.8318 5.70312 80.7797 5.41406 81.988 5.41406C82.5818 5.41406 83.1469 5.48438 83.6833 5.625C84.225 5.76562 84.7901 5.96354 85.3787 6.21875L84.5974 8.10156C83.988 7.85156 83.4828 7.67708 83.0818 7.57812C82.686 7.47917 82.2953 7.42969 81.9099 7.42969C81.4516 7.42969 81.1 7.53646 80.8552 7.75C80.6104 7.96354 80.488 8.24219 80.488 8.58594C80.488 8.79948 80.5375 8.98698 80.6365 9.14844C80.7354 9.30469 80.8917 9.45833 81.1052 9.60938C81.324 9.75521 81.837 10.0208 82.6443 10.4062C83.712 10.9167 84.4438 11.4297 84.8396 11.9453C85.2354 12.4557 85.4333 13.0833 85.4333 13.8281ZM96.9802 11.1797C96.9802 13.0599 96.4438 14.5 95.3708 15.5C94.3031 16.5 92.7589 17 90.738 17H87.5037V5.57812H91.0896C92.9542 5.57812 94.4021 6.07031 95.4333 7.05469C96.4646 8.03906 96.9802 9.41406 96.9802 11.1797ZM94.4646 11.2422C94.4646 8.78906 93.3813 7.5625 91.2146 7.5625H89.9255V15H90.9646C93.2979 15 94.4646 13.7474 94.4646 11.2422Z" fill="#EAB970"/>
<path d="M67.363 32H31.363L49.1615 46L67.363 32Z" stroke="#EAB970" stroke-width="2" stroke-linecap="round" stroke-linejoin="round"/>
</svg>
