<svg width="38" height="38" viewBox="0 0 38 38" fill="none" xmlns="http://www.w3.org/2000/svg">
<path d="M0 0.97998C4.68465 9.81534 11.2132 16.9016 18.2766 24.012L18.5619 24.3071L18.5668 24.3022C20.2843 26.0277 22.032 27.7582 23.7918 29.515C22.3081 30.6805 20.7252 31.7338 19.0757 32.6869L21.3207 34.9317L26.7276 29.5248C30.0588 31.6993 32.73 34.5327 34.918 37.8503L37.1262 35.6424C33.7845 33.4792 30.852 30.9052 28.7834 27.4691L34.2075 22.0449L31.9627 19.8C31.0881 21.5195 30.0418 23.1059 28.857 24.5677C25.4066 21.1213 22.0539 17.8133 18.6184 14.6953C18.6007 14.6793 18.5844 14.6621 18.5668 14.6461C12.8942 9.50233 6.98433 4.87268 0 0.97998ZM37.1287 0.97998C30.595 4.62145 25.0019 8.90969 19.6634 13.6603L21.4584 15.3568L25.9284 10.8867L26.9686 11.9243L22.5279 16.3652L24.4631 18.1895C29.3258 12.924 33.7162 7.41628 37.1287 0.97998ZM11.2002 10.8867L26.9809 26.6651C26.6373 27.015 26.2856 27.3569 25.9262 27.6905L10.16 11.9242L11.2002 10.8867ZM5.16596 19.7999L2.92348 22.0449L8.34531 27.4667C6.27673 30.903 3.34656 33.4792 0.00487839 35.6424L2.21297 37.8503C4.40092 34.5327 7.0723 31.6993 10.4034 29.5248L15.8104 34.9317L18.0552 32.6869C16.4059 31.7338 14.8229 30.6804 13.3392 29.5149C14.7449 28.112 16.1411 26.7269 17.5218 25.347L15.567 23.3284L11.2025 27.6927C10.8433 27.3593 10.4932 27.0145 10.1502 26.665L14.5441 22.271L12.614 20.2745C11.1757 21.6795 9.73408 23.1118 8.27403 24.5701C7.08843 23.1076 6.04092 21.5205 5.16596 19.7999Z" fill="white"/>
</svg>
