<svg width="50" height="50" viewBox="0 0 50 50" fill="none" xmlns="http://www.w3.org/2000/svg">
<path d="M20.8332 31.2498L31.6457 24.9998L20.8332 18.7498V31.2498ZM44.9165 14.9373C45.1873 15.9165 45.3748 17.229 45.4998 18.8957C45.6457 20.5623 45.7082 21.9998 45.7082 23.2498L45.8332 24.9998C45.8332 29.5623 45.4998 32.9165 44.9165 35.0623C44.3957 36.9373 43.1873 38.1457 41.3123 38.6665C40.3332 38.9373 38.5415 39.1248 35.7915 39.2498C33.0832 39.3957 30.604 39.4582 28.3123 39.4582L24.9998 39.5832C16.2707 39.5832 10.8332 39.2498 8.68734 38.6665C6.81234 38.1457 5.604 36.9373 5.08317 35.0623C4.81234 34.0832 4.62484 32.7707 4.49984 31.104C4.354 29.4373 4.2915 27.9998 4.2915 26.7498L4.1665 24.9998C4.1665 20.4373 4.49984 17.0832 5.08317 14.9373C5.604 13.0623 6.81234 11.854 8.68734 11.3332C9.6665 11.0623 11.4582 10.8748 14.2082 10.7498C16.9165 10.604 19.3957 10.5415 21.6873 10.5415L24.9998 10.4165C33.729 10.4165 39.1665 10.7498 41.3123 11.3332C43.1873 11.854 44.3957 13.0623 44.9165 14.9373Z" fill="white"/>
</svg>
